<?xml version="1.0" standalone="no"?>
<!DOCTYPE svg PUBLIC "-//W3C//DTD SVG 20010904//EN"
 "http://www.w3.org/TR/2001/REC-SVG-20010904/DTD/svg10.dtd">
<svg version="1.0" xmlns="http://www.w3.org/2000/svg"
 width="797.000000pt" height="305.000000pt" viewBox="0 0 797.000000 305.000000"
 preserveAspectRatio="xMidYMid meet">

<g transform="translate(0.000000,305.000000) scale(0.100000,-0.100000)"
fill="#000000" stroke="none">
<path d="M5939 2877 c32 -67 189 -395 350 -730 l291 -607 -351 -458 c-194
-251 -356 -463 -362 -469 -7 -10 46 -13 259 -13 l269 0 184 260 c101 143 187
260 191 260 4 0 86 -165 184 -368 l177 -367 124 -42 c159 -54 273 -110 409
-201 60 -40 110 -71 112 -69 2 2 -147 324 -332 715 l-336 712 364 472 c200
259 365 475 366 480 2 5 -117 7 -264 6 l-268 -3 -187 -270 c-104 -148 -192
-271 -196 -272 -4 -2 -94 167 -200 375 l-192 377 -58 14 c-153 35 -320 118
-487 242 l-104 78 57 -122z"/>
<path d="M775 2454 c-339 -62 -505 -238 -629 -668 -64 -220 -90 -610 -52 -791
44 -211 165 -333 386 -390 86 -22 329 -31 450 -17 406 48 599 227 709 654 52
203 65 312 65 543 0 221 -6 270 -54 398 -46 124 -178 223 -350 263 -104 24
-413 29 -525 8z m318 -415 c57 -15 112 -70 128 -126 21 -73 16 -275 -10 -403
-62 -302 -127 -422 -261 -483 -143 -65 -308 -27 -366 85 -63 121 -12 545 91
748 46 91 111 148 198 176 52 16 169 18 220 3z"/>
<path d="M2075 2438 c-10 -45 -295 -1800 -295 -1819 0 -18 13 -19 468 -21 577
-4 575 -4 649 16 96 24 153 55 213 116 69 68 93 119 120 251 31 149 37 281 16
351 -27 94 -130 186 -239 213 -25 7 -22 10 45 41 134 65 210 149 251 279 19
60 22 93 22 230 0 152 -1 163 -25 210 -17 34 -42 61 -74 82 -98 66 -160 73
-693 73 l-453 0 -5 -22z m750 -422 c42 -18 49 -42 43 -142 -5 -81 -24 -118
-69 -141 -16 -9 -78 -13 -191 -13 -197 0 -178 -22 -147 176 l22 134 154 0
c111 0 163 -4 188 -14z m-71 -707 c36 -17 44 -52 36 -155 -9 -104 -18 -127
-63 -154 -29 -18 -52 -20 -225 -20 l-194 0 6 28 c3 15 15 91 27 170 l22 142
183 0 c116 0 192 -4 208 -11z"/>
<path d="M4030 2456 c0 -2 -45 -292 -100 -644 -63 -406 -107 -657 -119 -684
-22 -53 -68 -93 -119 -108 -20 -5 -84 -10 -142 -10 l-105 0 -72 -214 -71 -214
47 -7 c192 -25 460 -23 578 6 153 38 275 161 340 343 11 33 99 570 241 1479
l9 57 -244 0 c-133 0 -243 -2 -243 -4z"/>
<path d="M5042 2435 c-86 -19 -146 -51 -212 -112 -55 -51 -106 -132 -128 -203
-6 -19 -48 -264 -92 -545 -91 -571 -96 -640 -51 -742 26 -58 96 -130 158 -161
93 -48 136 -52 552 -52 l390 0 10 38 c20 77 91 361 91 366 0 3 -150 6 -333 8
-301 3 -336 5 -360 21 -46 30 -52 57 -39 153 7 46 15 91 18 99 5 13 53 15 332
17 l326 3 38 185 c20 102 37 191 38 198 0 9 -72 12 -329 12 -182 0 -332 3
-334 8 -2 4 3 47 13 95 17 90 35 125 84 161 26 20 44 21 349 26 l321 5 51 207
52 206 -101 6 c-56 3 -254 8 -441 10 -270 4 -353 2 -403 -9z"/>
</g>
</svg>
